<svg xmlns="http://www.w3.org/2000/svg" viewBox="0 0 353.84 144" width="353.84" height="144" shape-rendering="crispEdges">
  <rect width="353.8385212846236" height="144" fill="#1E1B4B"></rect>
  <defs>
    <mask id="wm-fg">
      <rect x="30" y="22.5" width="8.1" height="8.1" fill="white"></rect>
      <rect x="37.5" y="22.5" width="8.1" height="8.1" fill="white"></rect>
      <rect x="75" y="22.5" width="8.1" height="8.1" fill="white"></rect>
      <rect x="82.5" y="22.5" width="8.1" height="8.1" fill="white"></rect>
      <rect x="22.5" y="30" width="8.1" height="8.1" fill="white"></rect>
      <rect x="45" y="30" width="8.1" height="8.1" fill="white"></rect>
      <rect x="67.5" y="30" width="8.1" height="8.1" fill="white"></rect>
      <rect x="90" y="30" width="8.1" height="8.1" fill="white"></rect>
      <rect x="22.5" y="37.5" width="8.1" height="8.1" fill="white"></rect>
      <rect x="45" y="37.5" width="8.1" height="8.1" fill="white"></rect>
      <rect x="52.5" y="37.5" width="8.1" height="8.1" fill="white"></rect>
      <rect x="60" y="37.5" width="8.1" height="8.1" fill="white"></rect>
      <rect x="67.5" y="37.5" width="8.1" height="8.1" fill="white"></rect>
      <rect x="90" y="37.5" width="8.1" height="8.1" fill="white"></rect>
      <rect x="22.5" y="45" width="8.1" height="8.1" fill="white"></rect>
      <rect x="30" y="45" width="8.1" height="8.1" fill="white"></rect>
      <rect x="37.5" y="45" width="8.1" height="8.1" fill="white"></rect>
      <rect x="45" y="45" width="8.1" height="8.1" fill="white"></rect>
      <rect x="52.5" y="45" width="8.1" height="8.1" fill="white"></rect>
      <rect x="60" y="45" width="8.1" height="8.1" fill="white"></rect>
      <rect x="67.5" y="45" width="8.1" height="8.1" fill="white"></rect>
      <rect x="75" y="45" width="8.1" height="8.1" fill="white"></rect>
      <rect x="82.5" y="45" width="8.1" height="8.1" fill="white"></rect>
      <rect x="90" y="45" width="8.1" height="8.1" fill="white"></rect>
      <rect x="30" y="52.5" width="8.1" height="8.1" fill="white"></rect>
      <rect x="37.5" y="52.5" width="8.1" height="8.1" fill="white"></rect>
      <rect x="45" y="52.5" width="8.1" height="8.1" fill="white"></rect>
      <rect x="52.5" y="52.5" width="8.1" height="8.1" fill="white"></rect>
      <rect x="60" y="52.5" width="8.1" height="8.1" fill="white"></rect>
      <rect x="67.5" y="52.5" width="8.1" height="8.1" fill="white"></rect>
      <rect x="75" y="52.5" width="8.1" height="8.1" fill="white"></rect>
      <rect x="82.5" y="52.5" width="8.1" height="8.1" fill="white"></rect>
      <rect x="30" y="60" width="8.1" height="8.1" fill="white"></rect>
      <rect x="45" y="60" width="8.1" height="8.1" fill="white"></rect>
      <rect x="52.5" y="60" width="8.1" height="8.1" fill="white"></rect>
      <rect x="60" y="60" width="8.1" height="8.1" fill="white"></rect>
      <rect x="67.5" y="60" width="8.1" height="8.1" fill="white"></rect>
      <rect x="82.5" y="60" width="8.1" height="8.1" fill="white"></rect>
      <rect x="30" y="67.5" width="8.1" height="8.1" fill="white"></rect>
      <rect x="37.5" y="67.5" width="8.1" height="8.1" fill="white"></rect>
      <rect x="45" y="67.5" width="8.1" height="8.1" fill="white"></rect>
      <rect x="52.5" y="67.5" width="8.1" height="8.1" fill="white"></rect>
      <rect x="60" y="67.5" width="8.1" height="8.1" fill="white"></rect>
      <rect x="67.5" y="67.5" width="8.1" height="8.1" fill="white"></rect>
      <rect x="75" y="67.5" width="8.1" height="8.1" fill="white"></rect>
      <rect x="82.5" y="67.5" width="8.1" height="8.1" fill="white"></rect>
      <rect x="37.5" y="75" width="8.1" height="8.1" fill="white"></rect>
      <rect x="45" y="75" width="8.1" height="8.1" fill="white"></rect>
      <rect x="52.5" y="75" width="8.1" height="8.1" fill="white"></rect>
      <rect x="60" y="75" width="8.1" height="8.1" fill="white"></rect>
      <rect x="67.5" y="75" width="8.1" height="8.1" fill="white"></rect>
      <rect x="75" y="75" width="8.1" height="8.1" fill="white"></rect>
      <rect x="37.5" y="82.5" width="8.1" height="8.1" fill="white"></rect>
      <rect x="45" y="82.5" width="8.1" height="8.1" fill="white"></rect>
      <rect x="67.5" y="82.5" width="8.1" height="8.1" fill="white"></rect>
      <rect x="75" y="82.5" width="8.1" height="8.1" fill="white"></rect>
      <rect x="45" y="90" width="8.1" height="8.1" fill="white"></rect>
      <rect x="52.5" y="90" width="8.1" height="8.1" fill="white"></rect>
      <rect x="60" y="90" width="8.1" height="8.1" fill="white"></rect>
      <rect x="67.5" y="90" width="8.1" height="8.1" fill="white"></rect>
      <rect x="52.5" y="97.5" width="8.1" height="8.1" fill="white"></rect>
      <rect x="60" y="97.5" width="8.1" height="8.1" fill="white"></rect>
      <rect x="37.5" y="60" width="7.5" height="7.5" fill="black"></rect>
      <rect x="75" y="60" width="7.5" height="7.5" fill="black"></rect>
      <rect x="52.5" y="82.5" width="7.5" height="7.5" fill="black"></rect>
      <rect x="60" y="82.5" width="7.5" height="7.5" fill="black"></rect>
    </mask>
    <mask id="wm-acc">
      <rect x="30" y="30" width="8.1" height="8.1" fill="white"></rect>
      <rect x="37.5" y="30" width="8.1" height="8.1" fill="white"></rect>
      <rect x="75" y="30" width="8.1" height="8.1" fill="white"></rect>
      <rect x="82.5" y="30" width="8.1" height="8.1" fill="white"></rect>
      <rect x="30" y="37.5" width="8.1" height="8.1" fill="white"></rect>
      <rect x="37.5" y="37.5" width="8.1" height="8.1" fill="white"></rect>
      <rect x="75" y="37.5" width="8.1" height="8.1" fill="white"></rect>
      <rect x="82.5" y="37.5" width="8.1" height="8.1" fill="white"></rect>
    </mask>
  </defs>
  <text x="24" y="72" font-family="Space Grotesk, -apple-system, sans-serif" font-weight="600" font-size="96" letter-spacing="-0.04em" fill="#E9D5FF" dominant-baseline="central">qu</text>
  <g transform="translate(113.23, 16.36) scale(0.87273)">
    <rect width="120" height="120" fill="#E9D5FF" mask="url(#wm-fg)"></rect>
    <rect width="120" height="120" fill="#8B5CF6" mask="url(#wm-acc)"></rect>
  </g>
  <text x="206.00" y="72" font-family="Space Grotesk, -apple-system, sans-serif" font-weight="600" font-size="96" letter-spacing="-0.04em" fill="#E9D5FF" dominant-baseline="central">fox</text>
</svg>